<?xml version="1.0" encoding="UTF-8"?>
<svg version="1.1" xmlns="http://www.w3.org/2000/svg" width="1280" height="800">
<path d="M0 0 C422.4 0 844.8 0 1280 0 C1280 264 1280 528 1280 800 C857.6 800 435.2 800 0 800 C0 536 0 272 0 0 Z " fill="#1A1919" transform="translate(0,0)"/>
<path d="M0 0 C2.30217965 0.95230725 4.54408489 1.72545698 6.91796875 2.45703125 C16.23608031 5.9562377 24.5635531 13.45604805 31.69921875 20.1640625 C33.90344954 22.26132845 33.90344954 22.26132845 36.44140625 24.10546875 C42.73804167 29.44867042 47.00600954 37.58047141 49.91796875 45.20703125 C50.7633685 47.08600037 51.61830789 48.96069367 52.48046875 50.83203125 C53.30244074 52.61937222 54.11529184 54.41094231 54.91796875 56.20703125 C55.27503906 56.99335938 55.63210938 57.7796875 56 58.58984375 C61.68765264 74.80570447 61.13008442 99.90496043 54.24609375 115.4453125 C53.8078125 116.35667969 53.36953125 117.26804687 52.91796875 118.20703125 C52.63115234 118.81337402 52.34433594 119.4197168 52.04882812 120.04443359 C48.48609452 127.54177472 44.93906092 134.80301545 39.8515625 141.41015625 C38.71691074 143.15991037 38.71691074 143.15991037 39.21801758 145.11938477 C41.14867882 150.87769807 46.99968774 156.71703546 51.91796875 160.20703125 C55.50789173 161.19336159 58.3069208 161.36329916 62.0078125 161.15234375 C68.50559245 161.27444968 72.4068171 166.46494848 76.66796875 170.82421875 C79.17674157 173.48107885 81.58964135 176.19980234 83.96875 178.97265625 C86.89089507 182.32228948 89.91673053 185.57613898 92.93212891 188.84155273 C95.41283069 191.53634483 97.83375434 194.25969693 100.16796875 197.08203125 C102.55059096 199.91523532 105.1975657 202.19090513 108.04931641 204.53955078 C109.91531079 206.20465943 111.4771645 207.93904374 113.0859375 209.8515625 C117.78089078 215.29113375 122.95288541 220.22618189 128.12890625 225.203125 C128.86109375 225.92113281 129.59328125 226.63914062 130.34765625 227.37890625 C131.01007324 228.01924805 131.67249023 228.65958984 132.35498047 229.31933594 C135.79766598 233.47723103 135.31695204 238.99040185 135.25390625 244.16015625 C134.65282951 249.61178254 132.45035438 253.14837134 128.2265625 256.58203125 C122.70238551 259.90345708 116.1792216 260.3424051 109.91796875 259.20703125 C105.00284438 256.52838459 101.6208285 252.97524571 97.98046875 248.83203125 C94.37744094 244.82096705 90.82025531 241.06883105 86.6031189 237.69128418 C84.79010282 236.09440901 83.28832557 234.39361999 81.72900391 232.54882812 C77.93821674 228.16558658 73.89180001 224.10419484 69.75390625 220.05078125 C68.20413877 218.51852072 66.65466846 216.98595957 65.10546875 215.453125 C62.69499768 213.07362042 60.2822763 210.69654301 57.86425781 208.32470703 C55.50809974 206.01108407 53.16166875 203.68794129 50.81640625 201.36328125 C49.73968155 200.31448792 49.73968155 200.31448792 48.64120483 199.24450684 C38.20087108 188.85738389 38.20087108 188.85738389 37.67578125 182.08203125 C37.79695312 181.13328125 37.918125 180.18453125 38.04296875 179.20703125 C38.25355244 174.56249105 37.89233576 172.34913904 34.79296875 168.83203125 C33.52560937 167.59822721 32.2338441 166.38895522 30.91796875 165.20703125 C29.76792533 164.04451447 28.62168842 162.87821134 27.48046875 161.70703125 C26.63484375 160.88203125 25.78921875 160.05703125 24.91796875 159.20703125 C21.83277564 160.32891966 19.04991226 161.66867755 16.23046875 163.33203125 C12.91796875 165.20703125 12.91796875 165.20703125 10.91796875 165.20703125 C10.91796875 165.86703125 10.91796875 166.52703125 10.91796875 167.20703125 C-7.37117178 175.09259626 -28.0093 181.5344651 -48.08203125 176.20703125 C-50.14342307 176.08285102 -52.20620561 175.98081129 -54.26953125 175.89453125 C-63.59796095 175.20739245 -69.9272303 171.41800784 -77.74609375 166.5703125 C-80.20376519 165.05595278 -80.20376519 165.05595278 -83.58203125 163.83203125 C-98.31859982 156.99005298 -107.94330922 142.68834994 -116.08203125 129.20703125 C-116.60796875 128.3975 -117.13390625 127.58796875 -117.67578125 126.75390625 C-126.98319774 109.89714084 -127.04118159 89.06297539 -125.26953125 70.45703125 C-125.19959961 69.67682617 -125.12966797 68.89662109 -125.05761719 68.09277344 C-123.429834 52.76826476 -115.51785654 39.08415836 -106.08203125 27.20703125 C-105.56769531 26.55089844 -105.05335938 25.89476562 -104.5234375 25.21875 C-96.69731765 15.65349241 -86.10988519 7.72095822 -75.08203125 2.20703125 C-73.76203125 2.20703125 -72.44203125 2.20703125 -71.08203125 2.20703125 C-71.08203125 1.54703125 -71.08203125 0.88703125 -71.08203125 0.20703125 C-68.75175333 -0.6152413 -66.41839508 -1.42581973 -64.08203125 -2.23046875 C-63.43363281 -2.46056641 -62.78523437 -2.69066406 -62.1171875 -2.92773438 C-43.18401354 -9.39500667 -18.2598685 -7.5701008 0 0 Z " fill="#E42932" transform="translate(717.08203125,344.79296875)"/>
<path d="M0 0 C0.73689056 -0.00511093 1.47378113 -0.01022186 2.23300171 -0.01548767 C4.6697399 -0.02939234 7.10619559 -0.02842648 9.54296875 -0.02612305 C11.23543402 -0.03000911 12.92789831 -0.0343436 14.62036133 -0.03910828 C18.16783815 -0.04657207 21.71521546 -0.04627778 25.26269531 -0.04101562 C29.8126223 -0.03521656 34.36214281 -0.05216158 38.91200256 -0.0753603 C42.40696603 -0.09007803 45.90183111 -0.0909721 49.39682007 -0.08785057 C51.07458299 -0.08836463 52.7523513 -0.0936183 54.43008423 -0.10366249 C56.77397245 -0.11597379 59.11706244 -0.10926816 61.4609375 -0.09765625 C62.50367325 -0.10912186 62.50367325 -0.10912186 63.56747437 -0.12081909 C66.41756157 -0.08954657 68.29488422 -0.03228313 70.66210938 1.63581848 C72.22577809 4.03445181 72.09249444 5.94026471 72.04296875 8.7746582 C72.03910156 9.7337207 72.03523437 10.6927832 72.03125 11.6809082 C71.73046875 14.2746582 71.73046875 14.2746582 69.73046875 17.2746582 C66.77982727 17.4955146 64.04678644 17.5552681 61.10546875 17.4621582 C60.30367187 17.44862305 59.501875 17.43508789 58.67578125 17.42114258 C56.69372497 17.38574872 54.71201324 17.33194054 52.73046875 17.2746582 C52.73046875 20.9046582 52.73046875 24.5346582 52.73046875 28.2746582 C54.85162109 28.01362305 54.85162109 28.01362305 57.015625 27.74731445 C73.13233683 26.38797134 73.13233683 26.38797134 79.53125 31.61450195 C83.27773577 35.20847668 86.6263294 39.11614373 89.73046875 43.2746582 C89.40046875 44.2646582 89.07046875 45.2546582 88.73046875 46.2746582 C86.25546875 46.7696582 86.25546875 46.7696582 83.73046875 47.2746582 C83.40046875 48.2646582 83.07046875 49.2546582 82.73046875 50.2746582 C81.04875304 51.01793502 79.36251162 51.75326029 77.65136719 52.42602539 C74.56291205 53.79047253 71.98345484 55.81593435 69.35546875 57.8996582 C68.79239014 58.34277344 68.22931152 58.78588867 67.64916992 59.24243164 C50.30847839 73.10311277 39.45934827 90.68663674 33.04296875 111.7746582 C32.82842041 112.46221191 32.61387207 113.14976562 32.39282227 113.8581543 C29.31893347 124.27624445 29.48193242 135.12237461 29.16796875 145.8996582 C29.12466248 147.29940752 29.08104488 148.69914724 29.03710938 150.09887695 C28.9318452 153.49072271 28.82970866 156.88263174 28.73046875 160.2746582 C-2.31128743 163.4018198 -2.31128743 163.4018198 -11.25390625 156.51293945 C-15.09956657 152.85401368 -18.34256592 148.81300746 -21.47363281 144.53588867 C-24.31622049 140.95676319 -27.74291299 138.1546033 -31.26953125 135.2746582 C-31.59953125 134.9446582 -31.92953125 134.6146582 -32.26953125 134.2746582 C-33.87241851 134.16955084 -35.47704967 134.0904554 -37.08203125 134.0246582 C-40.70000455 133.67787106 -41.96860179 133.51110278 -44.89453125 131.2121582 C-46.73592537 127.27827077 -46.56202389 124.58892468 -46.26953125 120.2746582 C-49.89953125 120.2746582 -53.52953125 120.2746582 -57.26953125 120.2746582 C-57.22828125 121.8627832 -57.18703125 123.4509082 -57.14453125 125.0871582 C-57.04471572 128.93005611 -57.06039125 129.9609482 -59.26953125 133.2746582 C-61.984375 133.6730957 -61.984375 133.6730957 -65.20703125 133.6496582 C-66.26792969 133.65739258 -67.32882812 133.66512695 -68.421875 133.6730957 C-71.26953125 133.2746582 -71.26953125 133.2746582 -72.92324829 132.21557617 C-74.96644532 129.26992659 -74.68713716 126.28019211 -74.65771484 122.8215332 C-74.6629718 122.0651355 -74.66822876 121.30873779 -74.67364502 120.52941895 C-74.68685539 118.02762234 -74.67810357 115.52646134 -74.66796875 113.0246582 C-74.66998919 111.28735227 -74.67290039 109.55004717 -74.67666626 107.81274414 C-74.68109101 104.17106047 -74.67465379 100.52959749 -74.66064453 96.88793945 C-74.64355247 92.21692336 -74.65339286 87.54642436 -74.67136192 82.87542725 C-74.68219574 79.28780207 -74.67875529 75.70029975 -74.67097855 72.1126709 C-74.66897542 70.39025817 -74.67143975 68.66783433 -74.67841721 66.94543457 C-74.6860252 64.53924965 -74.67443737 62.13390541 -74.65771484 59.7277832 C-74.66378754 59.01392456 -74.66986023 58.30006592 -74.67611694 57.5645752 C-74.63887261 54.67601148 -74.59401831 52.73627221 -72.90518188 50.33374023 C-70.52469228 48.79237577 -68.64344689 48.87677015 -65.83203125 48.8996582 C-64.41083984 48.88805664 -64.41083984 48.88805664 -62.9609375 48.8762207 C-59.81121574 49.34250752 -58.43332559 49.93857111 -56.26953125 52.2746582 C-55.73343059 55.67889742 -56.08945015 58.80809697 -56.26953125 62.2746582 C-52.96953125 62.2746582 -49.66953125 62.2746582 -46.26953125 62.2746582 C-46.33140625 60.8721582 -46.39328125 59.4696582 -46.45703125 58.0246582 C-46.58442448 55.13707825 -46.49037373 53.65838786 -45.03686523 51.1328125 C-43.26953125 49.2746582 -43.26953125 49.2746582 -41.13623047 49.03662109 C-40.3320166 49.0855249 -39.52780273 49.13442871 -38.69921875 49.18481445 C-33.67750818 48.87289002 -31.75030193 47.27687153 -28.40234375 43.58325195 C-26.72478298 41.63332214 -25.05580874 39.67597936 -23.39453125 37.7121582 C-13.77392372 26.895443 -13.77392372 26.895443 -6.4609375 25.8840332 C-1.61138066 25.73896099 2.98384411 26.31105771 7.73046875 27.2746582 C7.73046875 23.9746582 7.73046875 20.6746582 7.73046875 17.2746582 C6.68246094 17.30946289 5.63445312 17.34426758 4.5546875 17.38012695 C3.17579728 17.40826757 1.79688973 17.43556744 0.41796875 17.4621582 C-0.6174707 17.49986328 -0.6174707 17.49986328 -1.67382812 17.53833008 C-4.5265692 17.57967415 -6.72126228 17.59201948 -9.2265625 16.1418457 C-10.7300067 13.45028642 -10.66687417 11.27686183 -10.64453125 8.2121582 C-10.65613281 6.61694336 -10.65613281 6.61694336 -10.66796875 4.98950195 C-10.53648437 4.09360352 -10.405 3.19770508 -10.26953125 2.2746582 C-6.68938892 -0.11210335 -4.13307591 -0.01472955 0 0 Z " fill="#E32933" transform="translate(548.26953125,288.725341796875)"/>
<path d="M0 0 C2.24212052 -0.02709966 4.48433572 -0.04644108 6.7265625 -0.0625 C8.59948975 -0.07990234 8.59948975 -0.07990234 10.51025391 -0.09765625 C14.42867688 0.01199599 17.3649557 0.61522122 21 2 C21 2.66 21 3.32 21 4 C22.85625 4.1546875 22.85625 4.1546875 24.75 4.3125 C28.40019428 4.76637705 30.15894093 5.61717627 33 8 C34.03125 8.37125 35.0625 8.7425 36.125 9.125 C41.6996225 11.41903442 45.71609421 15.88872922 50 20 C50.86367188 20.77730469 51.72734375 21.55460937 52.6171875 22.35546875 C61.6421949 30.7632644 66.9207462 40.2570687 69.39453125 52.34375 C69.89256517 54.98319312 69.89256517 54.98319312 71.046875 57.17578125 C75.52757412 70.45260692 72.31496361 88.3418577 67 101 C65.28269609 104.29188282 63.29741281 107.0961635 61 110 C59.96832732 111.5553644 58.94756363 113.11801651 57.9375 114.6875 C48.38337782 128.88359928 33.40542057 140.47438209 16.54296875 144.37109375 C0.37219164 146.98504093 -15.7720568 145.9799229 -31 140 C-31.86109375 139.7009375 -32.7221875 139.401875 -33.609375 139.09375 C-47.12885541 133.91607665 -57.97888763 122.39624967 -65 110 C-65 109.34 -65 108.68 -65 108 C-65.66 108 -66.32 108 -67 108 C-69.41685712 103.77050005 -70.34833144 100.87664009 -70 96 C-70.66 96 -71.32 96 -72 96 C-72 94.35 -72 92.7 -72 91 C-69.03 90.01 -69.03 90.01 -66 89 C-66 88.34 -66 87.68 -66 87 C-64.77734375 85.80078125 -64.77734375 85.80078125 -62.9375 84.3125 C-58.42561149 80.48472455 -54.2449776 76.36700181 -50.0625 72.1875 C-49.38759521 71.5169458 -48.71269043 70.8463916 -48.01733398 70.15551758 C-47.06709351 69.20261841 -47.06709351 69.20261841 -46.09765625 68.23046875 C-45.52539307 67.65707764 -44.95312988 67.08368652 -44.36352539 66.49291992 C-42.89937424 65.02622622 -42.89937424 65.02622622 -42 63 C-39.56640625 62.65625 -39.56640625 62.65625 -36.5625 62.5 C-32.27670771 62.45324169 -32.27670771 62.45324169 -29 60 C-28.53993654 57.79749008 -28.53993654 57.79749008 -28.375 55.375 C-28.25125 53.93125 -28.1275 52.4875 -28 51 C-24.37 51 -20.74 51 -17 51 C-16.77213542 53.21354167 -16.54427083 55.42708333 -16.31640625 57.640625 C-16.00488803 60.29618363 -16.00488803 60.29618363 -15 64 C-10.71 64 -6.42 64 -2 64 C-0.93290958 60.79872874 -0.84326797 58.42642377 -0.79467773 55.05981445 C-0.77473251 53.83877518 -0.75478729 52.6177359 -0.73423767 51.35969543 C-0.71752518 50.04087875 -0.70081268 48.72206207 -0.68359375 47.36328125 C-0.6630174 45.99992756 -0.64202075 44.63658015 -0.62062073 43.27323914 C-0.5654703 39.68778578 -0.51603013 36.10227552 -0.46777344 32.51672363 C-0.41750701 28.8568008 -0.36184781 25.19696043 -0.30664062 21.53710938 C-0.19914506 14.35814279 -0.0976811 7.17910755 0 0 Z " fill="#1B1919" transform="translate(685,358)"/>
<path d="M0 0 C2.49656967 0.01608018 4.991516 0.00004995 7.48803711 -0.01904297 C27.30192225 -0.04462814 50.30813164 3.09031086 68.06420898 12.39111328 C68.39420898 13.38111328 68.72420898 14.37111328 69.06420898 15.39111328 C71.04420898 15.72111328 73.02420898 16.05111328 75.06420898 16.39111328 C75.06420898 17.05111328 75.06420898 17.71111328 75.06420898 18.39111328 C75.91112305 18.63216797 76.75803711 18.87322266 77.63061523 19.12158203 C81.44804106 20.53303072 84.65090072 22.44066041 88.00170898 24.70361328 C88.96753906 25.35088379 88.96753906 25.35088379 89.95288086 26.01123047 C96.87021846 30.7648034 103.12124838 36.24254652 109.34106445 41.86181641 C111.09466179 43.41814025 112.89200425 44.91058279 114.69702148 46.40673828 C125.49306845 55.63726812 134.62255108 70.45626335 140.06420898 83.39111328 C141.18871508 85.46531826 142.33475168 87.5279912 143.50170898 89.57861328 C147.11770724 96.20538974 151.06420898 103.68197107 151.06420898 111.39111328 C149.41420898 111.06111328 147.76420898 110.73111328 146.06420898 110.39111328 C146.06420898 109.73111328 146.06420898 109.07111328 146.06420898 108.39111328 C145.30108398 108.28798828 144.53795898 108.18486328 143.75170898 108.07861328 C142.53483398 107.85173828 141.31795898 107.62486328 140.06420898 107.39111328 C139.17088867 107.22998047 138.27756836 107.06884766 137.35717773 106.90283203 C129.90070417 105.27578358 129.90070417 105.27578358 127.57202148 102.81298828 C126.56420898 101.01611328 126.56420898 101.01611328 125.06420898 97.39111328 C124.22889648 96.12267578 124.22889648 96.12267578 123.37670898 94.82861328 C121.86104517 92.01380905 121.43139734 89.54893315 121.06420898 86.39111328 C120.40420898 86.39111328 119.74420898 86.39111328 119.06420898 86.39111328 C118.80768555 85.67310547 118.55116211 84.95509766 118.28686523 84.21533203 C108.22570021 60.97500516 82.65052822 43.75433415 61.06420898 32.39111328 C60.39260742 32.03194824 59.72100586 31.6727832 59.02905273 31.30273438 C54.9354857 29.17083128 51.09490519 27.67081696 46.56420898 26.64111328 C45.52264648 26.39876953 44.48108398 26.15642578 43.40795898 25.90673828 C42.63452148 25.73658203 41.86108398 25.56642578 41.06420898 25.39111328 C41.06420898 24.73111328 41.06420898 24.07111328 41.06420898 23.39111328 C30.36684843 21.41901788 19.99348531 21.10967437 9.15014648 21.18530273 C6.43650924 21.20363152 3.72321448 21.20581106 1.00952148 21.20556641 C-17.63730846 21.19368853 -17.63730846 21.19368853 -35.74829102 25.20361328 C-36.54170898 25.45175781 -37.33512695 25.69990234 -38.15258789 25.95556641 C-43.17243893 27.5846345 -47.40678679 29.69501052 -51.93579102 32.39111328 C-53.15266602 32.80361328 -54.36954102 33.21611328 -55.62329102 33.64111328 C-80.04703616 42.45428811 -103.74599777 68.95116603 -114.56079102 91.82861328 C-115.24141602 93.59205078 -115.24141602 93.59205078 -115.93579102 95.39111328 C-116.4675293 96.57447266 -116.4675293 96.57447266 -117.01000977 97.78173828 C-119.89018687 104.28712253 -122.12997062 110.902445 -124.18579102 117.70361328 C-124.44400635 118.55141357 -124.70222168 119.39921387 -124.96826172 120.27270508 C-125.21020264 121.0916626 -125.45214355 121.91062012 -125.70141602 122.75439453 C-125.91572266 123.47925049 -126.1300293 124.20410645 -126.35083008 124.95092773 C-128.29038767 133.04186184 -128.25860363 141.24405516 -128.31079102 149.51611328 C-128.31568542 150.22576233 -128.32057983 150.93541138 -128.32562256 151.66656494 C-128.35878529 163.32113171 -126.95398141 173.95756476 -123.56176758 185.12963867 C-122.65228028 188.41535664 -122.06154756 191.74653 -121.47631836 195.10327148 C-120.75106955 198.17296732 -119.45988896 200.75982754 -117.93579102 203.50439453 C-116.93579102 205.39111328 -116.93579102 205.39111328 -116.03198242 207.74072266 C-114.27795096 211.98165039 -111.76717023 215.71416668 -109.31079102 219.57861328 C-108.77172119 220.4285083 -108.23265137 221.27840332 -107.67724609 222.15405273 C-103.78177928 228.22484216 -99.66430805 233.93672741 -94.93579102 239.39111328 C-94.11594727 240.40818359 -94.11594727 240.40818359 -93.27954102 241.44580078 C-84.01340755 252.6788022 -70.42304857 262.91047968 -56.93579102 268.39111328 C-55.16312808 269.22054758 -53.39217291 270.05364568 -51.62329102 270.89111328 C-46.51184862 273.23444768 -41.36290886 274.94309702 -35.93579102 276.39111328 C-35.93579102 277.05111328 -35.93579102 277.71111328 -35.93579102 278.39111328 C-34.29610352 278.29830078 -34.29610352 278.29830078 -32.62329102 278.20361328 C-29.02742604 278.19092945 -26.00731083 278.81868002 -22.56079102 279.82861328 C-7.87565804 284.06432511 9.23094416 283.72996625 24.06420898 280.39111328 C27.31420898 279.76611328 27.31420898 279.76611328 30.06420898 280.39111328 C31.9646099 282.18694668 33.55964281 284.10530063 35.18530273 286.15283203 C37.68508324 289.13074104 40.55551136 291.49407348 43.56030273 293.94580078 C44.0565918 294.42275391 44.55288086 294.89970703 45.06420898 295.39111328 C45.06420898 296.05111328 45.06420898 296.71111328 45.06420898 297.39111328 C30.70072753 300.6231115 16.79888064 301.79300591 2.12670898 301.76611328 C0.95658264 301.76828857 0.95658264 301.76828857 -0.23718262 301.77050781 C-8.37657338 301.76879525 -16.02809628 301.53867669 -23.93579102 299.39111328 C-25.41198362 299.19988774 -26.89134222 299.03089728 -28.37329102 298.89111328 C-33.30294348 298.41208345 -38.09764965 297.43146518 -42.93579102 296.39111328 C-42.93579102 295.73111328 -42.93579102 295.07111328 -42.93579102 294.39111328 C-43.80977539 294.2615625 -43.80977539 294.2615625 -44.70141602 294.12939453 C-52.61320988 292.77344244 -59.76700511 289.97550624 -66.93579102 286.39111328 C-66.93579102 285.73111328 -66.93579102 285.07111328 -66.93579102 284.39111328 C-67.65766602 284.12298828 -68.37954102 283.85486328 -69.12329102 283.57861328 C-71.93579102 282.39111328 -71.93579102 282.39111328 -74.31079102 280.95361328 C-77.03430554 279.24359412 -77.03430554 279.24359412 -80.62329102 277.89111328 C-83.93579102 276.39111328 -83.93579102 276.39111328 -85.93579102 273.39111328 C-87.63403662 272.42274321 -89.33424248 271.45741086 -91.05004883 270.52050781 C-94.14717492 268.66560034 -96.69304065 266.29725889 -99.31079102 263.82861328 C-100.15323364 263.04079468 -100.15323364 263.04079468 -101.01269531 262.23706055 C-111.5722925 252.1785047 -120.6081281 239.98553392 -127.93579102 227.39111328 C-127.93579102 226.73111328 -127.93579102 226.07111328 -127.93579102 225.39111328 C-128.59579102 225.39111328 -129.25579102 225.39111328 -129.93579102 225.39111328 C-130.18973633 224.75044922 -130.44368164 224.10978516 -130.70532227 223.44970703 C-131.04950195 222.58474609 -131.39368164 221.71978516 -131.74829102 220.82861328 C-132.08473633 219.98169922 -132.42118164 219.13478516 -132.76782227 218.26220703 C-133.59658784 216.22494048 -134.46255432 214.20263078 -135.35375977 212.19189453 C-137.32737142 207.60510373 -138.87301366 202.8803778 -140.43579102 198.14111328 C-140.74403809 197.2067041 -141.05228516 196.27229492 -141.36987305 195.30957031 C-151.00800183 165.88224469 -150.91337739 135.70213846 -140.93579102 106.39111328 C-140.227345 104.24661925 -139.51901107 102.10208819 -138.81079102 99.95751953 C-137.29144847 95.39061363 -135.66348779 90.88312488 -133.93579102 86.39111328 C-133.27579102 86.39111328 -132.61579102 86.39111328 -131.93579102 86.39111328 C-131.84297852 85.52744141 -131.75016602 84.66376953 -131.65454102 83.77392578 C-128.42585296 68.57803526 -113.34770239 54.3300079 -102.93579102 43.39111328 C-102.34282227 42.74529297 -101.74985352 42.09947266 -101.13891602 41.43408203 C-85.57869263 24.98800434 -64.13913038 13.47529163 -42.93579102 6.39111328 C-42.09274414 6.10236328 -41.24969727 5.81361328 -40.38110352 5.51611328 C-27.05770023 1.20955868 -13.90750819 -0.10609151 0 0 Z " fill="#E12A31" transform="translate(573.935791015625,220.60888671875)"/>
<path d="M0 0 C0.66 0 1.32 0 2 0 C2.51046875 1.17755859 2.51046875 1.17755859 3.03125 2.37890625 C8.05320028 13.26425062 13.78827324 18.82155554 25 23 C25 23.66 25 24.32 25 25 C24.21496094 25.3403125 23.42992187 25.680625 22.62109375 26.03125 C11.73574938 31.05320028 6.17844446 36.78827324 2 48 C1.34 48 0.68 48 0 48 C-0.3403125 47.21496094 -0.680625 46.42992187 -1.03125 45.62109375 C-6.05320028 34.73574938 -11.78827324 29.17844446 -23 25 C-23 24.34 -23 23.68 -23 23 C-22.21496094 22.6596875 -21.42992187 22.319375 -20.62109375 21.96875 C-9.73574938 16.94679972 -4.17844446 11.21172676 0 0 Z " fill="#898989" transform="translate(1223,720)"/>
<path d="M0 0 C3.63 0 7.26 0 11 0 C11 9.24 11 18.48 11 28 C7.37 28 3.74 28 0 28 C0 18.76 0 9.52 0 0 Z " fill="#301C1C" transform="translate(657,366)"/>
<path d="M0 0 C3.3 0 6.6 0 10 0 C10 8.91 10 17.82 10 27 C6.7 27 3.4 27 0 27 C0 18.09 0 9.18 0 0 Z " fill="#241B1B" transform="translate(492,367)"/>
<path d="M0 0 C5.28 0 10.56 0 16 0 C16 0.33 16 0.66 16 1 C11.38 1 6.76 1 2 1 C2 3.64 2 6.28 2 9 C3.55460938 8.96519531 3.55460938 8.96519531 5.140625 8.9296875 C6.51040944 8.91092333 7.8802017 8.89272382 9.25 8.875 C9.93191406 8.85824219 10.61382813 8.84148437 11.31640625 8.82421875 C15.38537077 8.78471424 17.24899321 9.12449661 21 11 C14.07 11 7.14 11 0 11 C0 7.37 0 3.74 0 0 Z " fill="#5C2222" transform="translate(601,306)"/>
<path d="M0 0 C0.66 0.33 1.32 0.66 2 1 C-1.80013192 7.23221635 -6.76253633 13.07270806 -13 17 C-13.66 17 -14.32 17 -15 17 C-13.67879172 14.06769807 -12.25361803 12.01335101 -9.9609375 9.765625 C-9.38085938 9.19199219 -8.80078125 8.61835938 -8.203125 8.02734375 C-7.59984375 7.44082031 -6.9965625 6.85429687 -6.375 6.25 C-5.76398438 5.64800781 -5.15296875 5.04601562 -4.5234375 4.42578125 C-3.02011376 2.94594695 -1.51065144 1.47235324 0 0 Z " fill="#C1262C" transform="translate(478,257)"/>
<path d="M0 0 C0.33 0 0.66 0 1 0 C0.38574623 5.7926463 -1.15533044 10.94609066 -3.0625 16.4375 C-3.34416016 17.26443359 -3.62582031 18.09136719 -3.91601562 18.94335938 C-4.60517792 20.96412338 -5.3018231 22.98233282 -6 25 C-6.9715754 21.59725974 -6.89861721 19.95510003 -5.625 16.625 C-4.64749313 13.93465452 -3.94650386 11.65896214 -3.5 8.8125 C-2.90869282 5.48639712 -1.61497023 2.94907608 0 0 Z " fill="#4A201E" transform="translate(438,308)"/>
<path d="M0 0 C0.66 0.33 1.32 0.66 2 1 C1.09066991 2.27609323 0.17217147 3.54565553 -0.75 4.8125 C-1.26046875 5.52019531 -1.7709375 6.22789062 -2.296875 6.95703125 C-4.02482358 9.02977691 -5.78526476 10.47375854 -8 12 C-8.66 11.34 -9.32 10.68 -10 10 C-6.7 6.7 -3.4 3.4 0 0 Z " fill="#3B201F" transform="translate(613,349)"/>
<path d="M0 0 C0 3.34355667 -0.66740071 4.66901275 -2.25 7.5625 C-2.66765625 8.34753906 -3.0853125 9.13257813 -3.515625 9.94140625 C-5.15058032 12.20883113 -6.43027187 12.98418867 -9 14 C-7.65070536 10.16336928 -5.92248975 7.34827431 -3.375 4.1875 C-2.42753906 3.00220703 -2.42753906 3.00220703 -1.4609375 1.79296875 C-0.97882812 1.20128906 -0.49671875 0.60960937 0 0 Z " fill="#3E1F1D" transform="translate(600,363)"/>
<path d="M0 0 C1.27514492 3.82543475 0.52740413 5.33423008 -1 9 C-2.5625 10.6875 -2.5625 10.6875 -4 12 C-4.33 12.99 -4.66 13.98 -5 15 C-5.66 15 -6.32 15 -7 15 C-1.94736842 1.94736842 -1.94736842 1.94736842 0 0 Z " fill="#401F1D" transform="translate(463,305)"/>
<path d="M0 0 C0.66 1.32 1.32 2.64 2 4 C1.29875 3.9278125 0.5975 3.855625 -0.125 3.78125 C-5.78307538 3.22774263 -11.31588941 2.89275263 -17 3 C-17 2.67 -17 2.34 -17 2 C-5.47835991 -0.29612756 -5.47835991 -0.29612756 0 0 Z " fill="#B2242A" transform="translate(604,501)"/>
<path d="M0 0 C5.28137429 0.51525603 8.57221156 2.25477117 13 5 C13 5.66 13 6.32 13 7 C7.83572624 5.7605743 4.24563172 4.21011179 0 1 C0 0.67 0 0.34 0 0 Z " fill="#341A1A" transform="translate(641,490)"/>
<path d="M0 0 C0 0.66 0 1.32 0 2 C-0.99 2 -1.98 2 -3 2 C-3.185625 2.61875 -3.37125 3.2375 -3.5625 3.875 C-5.71437233 7.05602866 -8.37533763 7.19451947 -12 8 C-4.43243243 0 -4.43243243 0 0 0 Z " fill="#441F1E" transform="translate(513,257)"/>
<path d="M0 0 C1.32 0.33 2.64 0.66 4 1 C4.12375 1.969375 4.2475 2.93875 4.375 3.9375 C4.58125 4.948125 4.7875 5.95875 5 7 C5.66 7.33 6.32 7.66 7 8 C6.01 9.485 6.01 9.485 5 11 C4.16151196 9.54462432 3.32936066 8.08559627 2.5 6.625 C1.80390625 5.40683594 1.80390625 5.40683594 1.09375 4.1640625 C0 2 0 2 0 0 Z " fill="#4B1D1E" transform="translate(711,299)"/>
<path d="M0 0 C0.66 0.33 1.32 0.66 2 1 C-1.42388092 4.82669043 -4.00724943 6.72278474 -9 8 C-6.14723863 5.06799526 -3.34920216 2.35684596 0 0 Z " fill="#341F1E" transform="translate(624,341)"/>
<path d="M0 0 C0 3.33156142 -0.45664761 5.06028115 -2 8 C-4.625 9.8125 -4.625 9.8125 -7 11 C-5.22054913 6.95579349 -2.60470327 3.53921513 0 0 Z " fill="#48211F" transform="translate(474,289)"/>
<path d="M0 0 C-1.0625 1.5 -1.0625 1.5 -3 3 C-6.6875 3.1875 -6.6875 3.1875 -10 3 C-6.81859267 -0.48439851 -4.56758339 -1.41752588 0 0 Z " fill="#B0272C" transform="translate(531,229)"/>
<path d="M0 0 C1.32 0.66 2.64 1.32 4 2 C4 2.66 4 3.32 4 4 C1.36 4.33 -1.28 4.66 -4 5 C-2.68 3.35 -1.36 1.7 0 0 Z " fill="#C3252C" transform="translate(615,514)"/>
<path d="M0 0 C1.1875 1.625 1.1875 1.625 2 4 C0.625 7.25 0.625 7.25 -1 10 C-2.10732122 6.67803635 -1.85064093 5.31749961 -1 2 C-0.67 1.34 -0.34 0.68 0 0 Z " fill="#B8292E" transform="translate(585,382)"/>
<path d="M0 0 C0.556875 0.226875 1.11375 0.45375 1.6875 0.6875 C1.048125 0.97625 0.40875 1.265 -0.25 1.5625 C-2.46456079 2.51573451 -2.46456079 2.51573451 -3.3125 4.6875 C-4.6325 4.0275 -5.9525 3.3675 -7.3125 2.6875 C-2.88173077 -0.38942308 -2.88173077 -0.38942308 0 0 Z " fill="#A7252B" transform="translate(644.3125,347.3125)"/>
<path d="M0 0 C0.33 1.32 0.66 2.64 1 4 C-0.9375 6.25 -0.9375 6.25 -3 8 C-3.66 7.67 -4.32 7.34 -5 7 C-3.35 4.69 -1.7 2.38 0 0 Z " fill="#401E1D" transform="translate(760,481)"/>
<path d="M0 0 C2.72426311 2.35277269 3.8141763 4.62496331 5 8 C3.0625 7.375 3.0625 7.375 1 6 C0.25 2.875 0.25 2.875 0 0 Z " fill="#40201E" transform="translate(602,476)"/>
<path d="M0 0 C0.66 0.33 1.32 0.66 2 1 C0.29374499 3.78388975 -0.47626739 4.85384206 -3.6875 5.75 C-4.8321875 5.87375 -4.8321875 5.87375 -6 6 C-4 4 -2 2 0 0 Z " fill="#BD2129" transform="translate(491,247)"/>
<path d="M0 0 C4.67692308 1.47692308 4.67692308 1.47692308 6.3125 4.125 C6.539375 4.74375 6.76625 5.3625 7 6 C2.32307692 4.52307692 2.32307692 4.52307692 0.6875 1.875 C0.460625 1.25625 0.23375 0.6375 0 0 Z " fill="#371D1C" transform="translate(659,242)"/>
</svg>
